<svg width="54" height="54" viewBox="0 0 54 54" fill="none" xmlns="http://www.w3.org/2000/svg">
<path d="M20.3334 12.3335V20.3335H12.3334V12.3335H20.3334ZM24.3334 8.3335H8.33337V24.3335H24.3334V8.3335ZM20.3334 33.6668V41.6668H12.3334V33.6668H20.3334ZM24.3334 29.6668H8.33337V45.6668H24.3334V29.6668ZM41.6667 12.3335V20.3335H33.6667V12.3335H41.6667ZM45.6667 8.3335H29.6667V24.3335H45.6667V8.3335ZM29.6667 29.6668H33.6667V33.6668H29.6667V29.6668ZM33.6667 33.6668H37.6667V37.6668H33.6667V33.6668ZM37.6667 29.6668H41.6667V33.6668H37.6667V29.6668ZM29.6667 37.6668H33.6667V41.6668H29.6667V37.6668ZM33.6667 41.6668H37.6667V45.6668H33.6667V41.6668ZM37.6667 37.6668H41.6667V41.6668H37.6667V37.6668ZM41.6667 33.6668H45.6667V37.6668H41.6667V33.6668ZM41.6667 41.6668H45.6667V45.6668H41.6667V41.6668ZM53.6667 13.6668H48.3334V5.66683H40.3334V0.333496H53.6667V13.6668ZM53.6667 53.6668V40.3335H48.3334V48.3335H40.3334V53.6668H53.6667ZM0.333374 53.6668H13.6667V48.3335H5.66671V40.3335H0.333374V53.6668ZM0.333374 0.333496V13.6668H5.66671V5.66683H13.6667V0.333496H0.333374Z" fill="#F47738"/>
</svg>
