<svg width="54" height="54" viewBox="0 0 54 54" fill="none" xmlns="http://www.w3.org/2000/svg">
<path d="M52.0934 25.8802L28.0934 1.88016C27.1334 0.920163 25.8 0.333496 24.3334 0.333496H5.66671C2.73337 0.333496 0.333374 2.7335 0.333374 5.66683V24.3335C0.333374 25.8002 0.92004 27.1335 1.90671 28.1202L25.9067 52.1202C26.8667 53.0802 28.2 53.6668 29.6667 53.6668C31.1334 53.6668 32.4667 53.0802 33.4267 52.0935L52.0934 33.4268C53.08 32.4668 53.6667 31.1335 53.6667 29.6668C53.6667 28.2002 53.0534 26.8402 52.0934 25.8802ZM9.66671 13.6668C7.45337 13.6668 5.66671 11.8802 5.66671 9.66683C5.66671 7.4535 7.45337 5.66683 9.66671 5.66683C11.88 5.66683 13.6667 7.4535 13.6667 9.66683C13.6667 11.8802 11.88 13.6668 9.66671 13.6668ZM41.0534 35.7202L29.6667 47.1068L18.28 35.7202C17.08 34.4935 16.3334 32.8402 16.3334 31.0002C16.3334 27.3202 19.32 24.3335 23 24.3335C24.84 24.3335 26.52 25.0802 27.72 26.3068L29.6667 28.2268L31.6134 26.2802C32.8134 25.0802 34.4934 24.3335 36.3334 24.3335C40.0134 24.3335 43 27.3202 43 31.0002C43 32.8402 42.2534 34.5202 41.0534 35.7202Z" fill="#F47738"/>
</svg>
