<svg width="573" height="324" viewBox="0 0 573 324" fill="none" xmlns="http://www.w3.org/2000/svg">
<g clip-path="url(#clip0)">
<path d="M496.972 158.932H126.741C121.369 158.926 116.219 156.79 112.42 152.994C108.622 149.198 106.485 144.051 106.479 138.682V20.25C106.485 14.8812 108.622 9.73408 112.42 5.93779C116.219 2.14149 121.369 0.00606456 126.741 0H496.972C502.344 0.00606456 507.494 2.14149 511.292 5.93779C515.091 9.73408 517.227 14.8812 517.233 20.25V138.682C517.227 144.051 515.091 149.198 511.292 152.994C507.494 156.79 502.344 158.926 496.972 158.932Z" fill="#E6E6E6"/>
<path d="M127.355 7.97705C124.099 7.98076 120.978 9.27496 118.676 11.5757C116.374 13.8765 115.079 16.996 115.075 20.2498V138.682C115.079 141.935 116.374 145.055 118.676 147.356C120.978 149.656 124.099 150.951 127.355 150.954H497.586C500.842 150.951 503.963 149.656 506.265 147.356C508.567 145.055 509.862 141.935 509.866 138.682V20.2498C509.862 16.996 508.567 13.8765 506.265 11.5757C503.963 9.27495 500.842 7.98075 497.586 7.97705H127.355Z" fill="white"/>
<path d="M173.798 57.5218C171.138 57.5218 168.537 56.7333 166.326 55.2562C164.114 53.7791 162.39 51.6797 161.372 49.2233C160.354 46.767 160.087 44.0641 160.606 41.4564C161.125 38.8488 162.406 36.4535 164.287 34.5735C166.168 32.6935 168.565 31.4132 171.174 30.8945C173.783 30.3758 176.488 30.6421 178.945 31.6595C181.403 32.677 183.504 34.3999 184.982 36.6106C186.46 38.8212 187.248 41.4203 187.248 44.079C187.244 47.643 185.826 51.0599 183.305 53.5801C180.783 56.1002 177.364 57.5178 173.798 57.5218ZM173.798 32.4286C171.493 32.4286 169.239 33.1119 167.322 34.392C165.405 35.6722 163.911 37.4917 163.029 39.6206C162.146 41.7494 161.915 44.0919 162.365 46.3519C162.815 48.6118 163.925 50.6877 165.555 52.3171C167.186 53.9464 169.263 55.056 171.524 55.5055C173.785 55.9551 176.129 55.7243 178.259 54.8426C180.389 53.9608 182.21 52.4675 183.491 50.5516C184.771 48.6357 185.455 46.3832 185.455 44.079C185.452 40.9902 184.222 38.0289 182.037 35.8448C179.852 33.6607 176.889 32.4321 173.798 32.4286Z" fill="#CCCCCC"/>
<path d="M173.5 41.0282H173.475L172.056 41.794L171.843 40.953L173.626 39.999H174.568V48.1592H173.5V41.0282Z" fill="#CCCCCC"/>
<path d="M155.436 79.2232C155.753 79.2341 156.066 79.1496 156.334 78.9805C156.602 78.8115 156.812 78.5657 156.939 78.2752C157.065 77.9848 157.101 77.663 157.042 77.3518C156.983 77.0407 156.831 76.7545 156.607 76.5305C156.383 76.3065 156.097 76.1552 155.785 76.0961C155.474 76.037 155.152 76.0729 154.862 76.1991C154.571 76.3254 154.325 76.5361 154.156 76.804C153.987 77.0718 153.902 77.3843 153.913 77.7009C153.927 78.1002 154.092 78.4794 154.375 78.762C154.657 79.0445 155.037 79.2093 155.436 79.2232Z" fill="#E6E6E6"/>
<path d="M155.436 89.0816C155.753 89.0926 156.066 89.008 156.334 88.8389C156.602 88.6699 156.812 88.4241 156.939 88.1336C157.065 87.8432 157.101 87.5214 157.042 87.2102C156.983 86.8991 156.831 86.6129 156.607 86.3889C156.383 86.1649 156.097 86.0136 155.785 85.9545C155.474 85.8954 155.152 85.9313 154.862 86.0575C154.571 86.1838 154.325 86.3945 154.156 86.6624C153.987 86.9302 153.902 87.2427 153.913 87.5593C153.927 87.9586 154.092 88.3378 154.375 88.6204C154.657 88.9029 155.037 89.0678 155.436 89.0816Z" fill="#E6E6E6"/>
<path d="M155.436 98.9395C155.753 98.9505 156.066 98.8659 156.334 98.6969C156.602 98.5278 156.812 98.282 156.939 97.9915C157.065 97.7011 157.101 97.3793 157.042 97.0681C156.983 96.757 156.831 96.4708 156.607 96.2468C156.383 96.0229 156.097 95.8715 155.785 95.8124C155.474 95.7533 155.152 95.7892 154.862 95.9155C154.571 96.0417 154.325 96.2525 154.156 96.5203C153.987 96.7881 153.902 97.1006 153.913 97.4172C153.927 97.8165 154.092 98.1958 154.375 98.4783C154.657 98.7608 155.037 98.9257 155.436 98.9395Z" fill="#E6E6E6"/>
<path d="M192.787 78.5429H164.092C163.855 78.5429 163.627 78.4484 163.458 78.2804C163.29 78.1123 163.196 77.8844 163.196 77.6467C163.196 77.409 163.29 77.181 163.458 77.013C163.627 76.8449 163.855 76.7505 164.092 76.7505H192.787C193.024 76.7505 193.252 76.8449 193.421 77.013C193.589 77.181 193.683 77.409 193.683 77.6467C193.683 77.8844 193.589 78.1123 193.421 78.2804C193.252 78.4484 193.024 78.5429 192.787 78.5429H192.787Z" fill="#E6E6E6"/>
<path d="M192.787 88.4008H164.092C163.855 88.401 163.626 88.3068 163.458 88.1389C163.29 87.9711 163.195 87.7432 163.195 87.5055C163.195 87.2678 163.289 87.0398 163.457 86.8715C163.625 86.7033 163.853 86.6086 164.091 86.6084H192.787C193.024 86.6081 193.253 86.7023 193.421 86.8702C193.589 87.0381 193.684 87.2659 193.684 87.5036C193.684 87.7413 193.59 87.9693 193.422 88.1376C193.254 88.3058 193.026 88.4005 192.788 88.4008H192.787Z" fill="#E6E6E6"/>
<path d="M192.787 98.2587H164.092C163.855 98.2587 163.627 98.1642 163.458 97.9962C163.29 97.8281 163.196 97.6002 163.196 97.3625C163.196 97.1248 163.29 96.8968 163.458 96.7288C163.627 96.5607 163.855 96.4663 164.092 96.4663H192.787C192.904 96.4662 193.021 96.4892 193.13 96.5342C193.239 96.5791 193.338 96.645 193.421 96.7281C193.504 96.8113 193.57 96.91 193.616 97.0186C193.661 97.1273 193.684 97.2438 193.684 97.3615C193.684 97.4792 193.661 97.5958 193.616 97.7046C193.571 97.8133 193.505 97.9122 193.422 97.9955C193.339 98.0788 193.24 98.1449 193.132 98.1901C193.023 98.2352 192.906 98.2585 192.788 98.2587H192.787Z" fill="#E6E6E6"/>
<path d="M257.11 55.6804C254.45 55.6804 251.85 54.892 249.638 53.4149C247.426 51.9378 245.702 49.8383 244.684 47.382C243.666 44.9256 243.4 42.2228 243.919 39.6151C244.438 37.0075 245.719 34.6122 247.6 32.7322C249.481 30.8522 251.877 29.5719 254.486 29.0532C257.096 28.5345 259.8 28.8007 262.258 29.8182C264.715 30.8356 266.816 32.5586 268.294 34.7693C269.772 36.9799 270.561 39.579 270.561 42.2377C270.561 44.003 270.213 45.7511 269.537 47.382C268.861 49.013 267.87 50.4949 266.621 51.7432C265.372 52.9914 263.89 53.9816 262.258 54.6572C260.626 55.3327 258.877 55.6804 257.11 55.6804ZM257.11 30.5873C254.805 30.5873 252.551 31.2706 250.634 32.5507C248.717 33.8309 247.223 35.6504 246.341 37.7792C245.459 39.9081 245.228 42.2506 245.677 44.5106C246.127 46.7705 247.237 48.8464 248.868 50.4758C250.498 52.1051 252.575 53.2147 254.836 53.6642C257.097 54.1138 259.441 53.8831 261.571 53.0013C263.701 52.1195 265.522 50.6262 266.803 48.7103C268.084 46.7944 268.767 44.542 268.767 42.2377V42.2377C268.764 39.1489 267.535 36.1877 265.349 34.0036C263.164 31.8195 260.201 30.5909 257.11 30.5873V30.5873Z" fill="#CCCCCC"/>
<path d="M254.731 46.3876V45.7093L255.597 44.8682C257.683 42.8851 258.625 41.8296 258.638 40.6C258.66 40.383 258.633 40.1638 258.559 39.9585C258.485 39.7533 258.366 39.5673 258.211 39.4142C258.055 39.2612 257.867 39.1451 257.661 39.0745C257.454 39.0039 257.234 38.9806 257.018 39.0063C256.378 39.0298 255.765 39.2734 255.284 39.6959L254.932 38.9179C255.581 38.3782 256.399 38.0847 257.244 38.0891C257.568 38.0602 257.896 38.1008 258.203 38.2081C258.511 38.3154 258.793 38.487 259.029 38.7114C259.266 38.9358 259.452 39.208 259.575 39.5098C259.698 39.8116 259.755 40.1361 259.743 40.4617C259.743 41.9679 258.65 43.1861 256.929 44.8429L256.276 45.4459V45.4704H259.944V46.3876H254.731Z" fill="#CCCCCC"/>
<path d="M292.722 127.615H221.5C220.035 127.613 218.63 127.031 217.594 125.995C216.558 124.96 215.975 123.556 215.974 122.092V79.7512C215.975 78.287 216.558 76.8833 217.594 75.8479C218.63 74.8126 220.035 74.2302 221.5 74.2285H292.722C294.187 74.2302 295.591 74.8126 296.627 75.8479C297.663 76.8833 298.246 78.287 298.247 79.7512V122.092C298.246 123.556 297.663 124.96 296.627 125.995C295.591 127.031 294.187 127.613 292.722 127.615Z" fill="white"/>
<path d="M281.321 85.6869H232.9C232.662 85.6871 232.434 85.593 232.266 85.4251C232.097 85.2572 232.002 85.0294 232.002 84.7917C232.002 84.554 232.096 84.3259 232.264 84.1577C232.432 83.9895 232.66 83.8948 232.898 83.8945H281.321C281.559 83.8943 281.787 83.9884 281.955 84.1563C282.124 84.3242 282.218 84.5521 282.219 84.7898C282.219 85.0274 282.125 85.2555 281.957 85.4237C281.789 85.592 281.561 85.6866 281.323 85.6869H281.321Z" fill="#E6E6E6"/>
<path d="M281.321 93.7523H232.9C232.662 93.7526 232.434 93.6584 232.266 93.4905C232.097 93.3226 232.002 93.0948 232.002 92.8571C232.002 92.6194 232.096 92.3914 232.264 92.2231C232.432 92.0549 232.66 91.9602 232.898 91.96H281.321C281.559 91.96 281.787 92.0544 281.955 92.2224C282.123 92.3905 282.218 92.6185 282.218 92.8561C282.218 93.0938 282.123 93.3218 281.955 93.4898C281.787 93.6579 281.559 93.7523 281.321 93.7523H281.321Z" fill="#E6E6E6"/>
<path d="M281.321 101.818H232.9C232.662 101.818 232.434 101.724 232.266 101.556C232.097 101.389 232.002 101.161 232.002 100.923C232.002 100.685 232.096 100.457 232.264 100.289C232.432 100.121 232.66 100.026 232.898 100.026H281.321C281.559 100.026 281.787 100.12 281.955 100.288C282.124 100.456 282.218 100.683 282.219 100.921C282.219 101.159 282.125 101.387 281.957 101.555C281.789 101.723 281.561 101.818 281.323 101.818H281.321Z" fill="#E6E6E6"/>
<path d="M281.321 109.884H232.9C232.662 109.883 232.435 109.789 232.267 109.621C232.099 109.453 232.005 109.226 232.004 108.988C232.004 108.751 232.098 108.523 232.266 108.355C232.433 108.187 232.661 108.092 232.898 108.091H281.321C281.558 108.092 281.786 108.187 281.954 108.355C282.121 108.523 282.215 108.75 282.215 108.987C282.215 109.225 282.121 109.452 281.954 109.62C281.786 109.788 281.558 109.883 281.321 109.884H281.321Z" fill="#E6E6E6"/>
<path d="M281.321 117.949H232.9C232.662 117.949 232.434 117.855 232.266 117.687C232.098 117.519 232.003 117.291 232.003 117.053C232.003 116.815 232.098 116.587 232.266 116.419C232.434 116.251 232.662 116.157 232.9 116.157H281.321C281.559 116.156 281.787 116.251 281.955 116.419C282.124 116.586 282.218 116.814 282.219 117.052C282.219 117.29 282.125 117.518 281.957 117.686C281.789 117.854 281.561 117.949 281.323 117.949H281.321Z" fill="#E6E6E6"/>
<path d="M292.722 127.615H221.5C220.035 127.613 218.63 127.031 217.594 125.995C216.558 124.96 215.975 123.556 215.974 122.092V79.7512C215.975 78.287 216.558 76.8833 217.594 75.8479C218.63 74.8126 220.035 74.2302 221.5 74.2285H292.722C294.187 74.2302 295.591 74.8126 296.627 75.8479C297.663 76.8833 298.246 78.287 298.247 79.7512V122.092C298.246 123.556 297.663 124.96 296.627 125.995C295.591 127.031 294.187 127.613 292.722 127.615ZM221.5 75.4558C220.36 75.4571 219.268 75.91 218.462 76.7153C217.656 77.5206 217.203 78.6124 217.202 79.7512V122.092C217.203 123.231 217.656 124.323 218.462 125.128C219.268 125.933 220.36 126.386 221.5 126.388H292.722C293.861 126.386 294.954 125.933 295.759 125.128C296.565 124.323 297.018 123.231 297.019 122.092V79.7512C297.018 78.6124 296.565 77.5206 295.759 76.7153C294.954 75.91 293.861 75.4571 292.722 75.4558H221.5Z" fill="#E6E6E6"/>
<path d="M347.226 55.6804C344.565 55.6804 341.965 54.892 339.753 53.4149C337.541 51.9378 335.817 49.8383 334.799 47.382C333.781 44.9256 333.515 42.2228 334.034 39.6151C334.553 37.0075 335.834 34.6122 337.715 32.7322C339.596 30.8522 341.993 29.5719 344.602 29.0532C347.211 28.5345 349.915 28.8007 352.373 29.8182C354.831 30.8356 356.931 32.5586 358.409 34.7693C359.887 36.9799 360.676 39.579 360.676 42.2377C360.676 45.8029 359.259 49.2222 356.737 51.7432C354.214 54.2642 350.793 55.6804 347.226 55.6804ZM347.226 30.5873C344.92 30.5873 342.666 31.2706 340.749 32.5507C338.832 33.8309 337.338 35.6504 336.456 37.7792C335.574 39.9081 335.343 42.2506 335.793 44.5106C336.242 46.7705 337.353 48.8464 338.983 50.4758C340.613 52.1051 342.69 53.2147 344.952 53.6642C347.213 54.1138 349.557 53.8831 351.687 53.0013C353.817 52.1195 355.637 50.6262 356.918 48.7103C358.199 46.7944 358.883 44.542 358.883 42.2377V42.2377C358.879 39.1489 357.65 36.1877 355.464 34.0036C353.279 31.8195 350.316 30.5909 347.226 30.5873V30.5873Z" fill="#CCCCCC"/>
<path d="M344.977 45.0499C345.526 45.3741 346.149 45.5513 346.786 45.5645C348.206 45.5645 348.646 44.6604 348.632 43.983C348.62 42.84 347.59 42.3508 346.523 42.3508H345.907V41.522H346.523C347.327 41.522 348.344 41.1081 348.344 40.141C348.344 39.4881 347.929 38.9105 346.912 38.9105C346.326 38.927 345.759 39.1151 345.28 39.4514L344.991 38.6479C345.625 38.2344 346.368 38.0159 347.125 38.0196C348.733 38.0196 349.462 38.9735 349.462 39.966C349.453 40.4063 349.302 40.8319 349.03 41.1784C348.757 41.5248 348.38 41.7733 347.954 41.8861V41.9115C348.459 41.9845 348.92 42.2363 349.254 42.6211C349.589 43.0059 349.774 43.4979 349.775 44.0076C349.775 45.3133 348.758 46.4563 346.799 46.4563C346.054 46.4659 345.321 46.2748 344.676 45.9032L344.977 45.0499Z" fill="#CCCCCC"/>
<path d="M327.351 115.789C327.668 115.8 327.981 115.715 328.249 115.546C328.517 115.377 328.728 115.131 328.854 114.841C328.98 114.55 329.016 114.228 328.957 113.917C328.898 113.606 328.747 113.32 328.522 113.096C328.298 112.872 328.012 112.721 327.701 112.662C327.389 112.602 327.067 112.638 326.777 112.765C326.486 112.891 326.24 113.102 326.071 113.369C325.902 113.637 325.817 113.95 325.828 114.266C325.842 114.666 326.007 115.045 326.29 115.327C326.572 115.61 326.952 115.775 327.351 115.789Z" fill="#E6E6E6"/>
<path d="M364.702 115.108H336.008C335.77 115.108 335.542 115.013 335.373 114.845C335.205 114.677 335.111 114.449 335.111 114.212C335.111 113.974 335.205 113.746 335.373 113.578C335.542 113.41 335.77 113.315 336.008 113.315H364.702C364.819 113.315 364.936 113.338 365.045 113.383C365.154 113.428 365.253 113.494 365.336 113.577C365.419 113.66 365.485 113.759 365.531 113.868C365.576 113.976 365.599 114.093 365.599 114.211C365.599 114.328 365.576 114.445 365.531 114.554C365.486 114.662 365.42 114.761 365.337 114.845C365.254 114.928 365.155 114.994 365.047 115.039C364.938 115.084 364.821 115.108 364.703 115.108H364.702Z" fill="#E6E6E6"/>
<path d="M372.399 103.069H322.053C320.913 103.068 319.821 102.615 319.015 101.81C318.209 101.005 317.756 99.9128 317.755 98.774V78.524C317.756 77.3851 318.209 76.2933 319.015 75.488C319.821 74.6828 320.913 74.2298 322.053 74.2285H372.399C373.539 74.2298 374.631 74.6828 375.437 75.488C376.242 76.2933 376.696 77.3851 376.697 78.524V98.774C376.696 99.9128 376.242 101.005 375.437 101.81C374.631 102.615 373.539 103.068 372.399 103.069ZM322.053 75.4558C321.239 75.4567 320.458 75.7803 319.883 76.3555C319.307 76.9307 318.984 77.7105 318.983 78.524V98.774C318.984 99.5874 319.307 100.367 319.883 100.942C320.458 101.518 321.239 101.841 322.053 101.842H372.399C373.213 101.841 373.993 101.518 374.569 100.942C375.144 100.367 375.468 99.5874 375.469 98.774V78.524C375.468 77.7105 375.144 76.9307 374.569 76.3555C373.993 75.7803 373.213 75.4567 372.399 75.4558H322.053Z" fill="#E6E6E6"/>
<path d="M374.933 75.5581L319.094 100.712L319.599 101.831L375.438 76.6769L374.933 75.5581Z" fill="#E6E6E6"/>
<path d="M319.832 75.2461L319.32 76.3613L374.85 101.827L375.362 100.712L319.832 75.2461Z" fill="#E6E6E6"/>
<path d="M413.765 89.4769C413.73 89.4057 413.686 89.3394 413.634 89.2801V89.28L406.908 82.5587C406.825 82.4753 406.726 82.4092 406.618 82.364C406.509 82.3188 406.392 82.2955 406.274 82.2954C406.156 82.2953 406.04 82.3185 405.931 82.3635C405.822 82.4085 405.723 82.4746 405.64 82.5578C405.556 82.6411 405.49 82.74 405.445 82.8488C405.4 82.9577 405.377 83.0743 405.377 83.1921C405.377 83.3099 405.4 83.4265 405.446 83.5352C405.491 83.644 405.557 83.7428 405.64 83.826L410.835 89.0175H387.892C387.655 89.0175 387.427 89.1119 387.258 89.28C387.09 89.4481 386.996 89.676 386.996 89.9137C386.996 90.1514 387.09 90.3794 387.258 90.5474C387.427 90.7155 387.655 90.8099 387.892 90.8099H410.835L406.089 95.5534C406.005 95.6365 405.939 95.7353 405.894 95.8441C405.848 95.9529 405.825 96.0696 405.825 96.1874C405.825 96.3053 405.848 96.422 405.893 96.5309C405.938 96.6398 406.004 96.7387 406.087 96.8221C406.171 96.9054 406.27 96.9715 406.379 97.0165C406.488 97.0616 406.605 97.0847 406.722 97.0845C406.84 97.0844 406.957 97.061 407.066 97.0157C407.175 96.9705 407.274 96.9042 407.357 96.8207L413.633 90.5481L413.634 90.5474C413.771 90.4084 413.858 90.228 413.881 90.0344C413.905 89.8408 413.864 89.6448 413.765 89.4769Z" fill="#CCCCCC"/>
<path d="M471.029 71.8625H470.608V60.3569C470.608 59.4824 470.436 58.6165 470.101 57.8085C469.766 57.0006 469.276 56.2665 468.657 55.6482C468.038 55.0298 467.304 54.5393 466.495 54.2047C465.687 53.87 464.82 53.6978 463.945 53.6978H439.556C438.681 53.6978 437.814 53.87 437.006 54.2046C436.197 54.5393 435.463 55.0298 434.844 55.6482C434.226 56.2665 433.735 57.0006 433.4 57.8085C433.065 58.6164 432.893 59.4824 432.893 60.3569V123.477C432.893 125.244 433.595 126.937 434.844 128.186C436.094 129.435 437.788 130.137 439.556 130.137H463.945C464.82 130.137 465.687 129.964 466.495 129.63C467.304 129.295 468.038 128.804 468.657 128.186C469.276 127.568 469.766 126.834 470.101 126.026C470.436 125.218 470.608 124.352 470.608 123.477V80.0523H471.029V71.8625Z" fill="#3F3D56"/>
<path d="M469.19 60.4034V123.431C469.19 124.75 468.666 126.015 467.733 126.948C466.799 127.88 465.534 128.404 464.214 128.404H439.707C438.387 128.404 437.122 127.88 436.189 126.948C435.255 126.015 434.731 124.75 434.731 123.431V60.4034C434.731 59.0844 435.255 57.8195 436.189 56.8868C437.122 55.9542 438.387 55.4302 439.707 55.4302H442.68C442.534 55.789 442.478 56.1781 442.518 56.5634C442.558 56.9488 442.692 57.3184 442.908 57.6399C443.124 57.9614 443.416 58.2248 443.758 58.4071C444.1 58.5893 444.482 58.6848 444.869 58.6851H458.842C459.229 58.6848 459.611 58.5893 459.953 58.4071C460.295 58.2248 460.587 57.9613 460.803 57.6399C461.019 57.3184 461.153 56.9487 461.193 56.5634C461.233 56.1781 461.177 55.789 461.031 55.4302H464.214C465.534 55.4302 466.799 55.9542 467.733 56.8868C468.666 57.8195 469.19 59.0844 469.19 60.4034Z" fill="white"/>
<path d="M147.988 133.221C147.734 132.899 147.556 132.524 147.469 132.123C147.382 131.723 147.387 131.308 147.484 130.91C149.812 121.166 149.812 111.011 147.484 101.267C147.387 100.869 147.382 100.454 147.469 100.054C147.556 99.6531 147.734 99.2779 147.988 98.9563C148.237 98.6393 148.555 98.3832 148.918 98.2075C149.281 98.0318 149.679 97.9411 150.082 97.9424H174.965C175.601 97.9436 176.216 98.1703 176.7 98.5821C177.184 98.994 177.506 99.5642 177.609 100.191C179.232 110.727 179.232 121.45 177.609 131.986C177.506 132.613 177.184 133.183 176.7 133.595C176.216 134.007 175.601 134.233 174.965 134.235H150.082C149.679 134.236 149.281 134.145 148.918 133.969C148.555 133.794 148.237 133.538 147.988 133.221Z" fill="#F47738"/>
<path d="M170.163 111.333H157.055C156.567 111.333 156.099 111.139 155.753 110.793C155.408 110.448 155.214 109.98 155.213 109.492V108.711C155.214 108.222 155.408 107.755 155.753 107.409C156.099 107.064 156.567 106.87 157.055 106.87H170.163C170.652 106.87 171.12 107.064 171.465 107.409C171.811 107.755 172.005 108.222 172.005 108.711V109.492C172.005 109.98 171.811 110.448 171.465 110.793C171.12 111.139 170.652 111.333 170.163 111.333Z" fill="white"/>
<path d="M170.163 119.032H157.055C156.567 119.032 156.099 118.838 155.753 118.493C155.408 118.147 155.214 117.68 155.213 117.191V116.41C155.214 115.922 155.408 115.454 155.753 115.109C156.099 114.764 156.567 114.569 157.055 114.569H170.163C170.652 114.569 171.12 114.764 171.465 115.109C171.811 115.454 172.005 115.922 172.005 116.41V117.192C172.005 117.68 171.811 118.147 171.465 118.493C171.12 118.838 170.652 119.032 170.163 119.032Z" fill="white"/>
<path d="M378.125 155.883C376.529 145.517 376.529 134.968 378.125 124.602C378.227 123.985 378.544 123.424 379.02 123.019C379.496 122.614 380.101 122.391 380.727 122.39H405.208C405.604 122.388 405.996 122.478 406.353 122.651C406.71 122.823 407.023 123.076 407.268 123.388C407.518 123.704 407.693 124.073 407.779 124.467C407.865 124.861 407.859 125.269 407.764 125.661C405.473 135.247 405.473 145.238 407.763 154.824C407.859 155.216 407.864 155.624 407.779 156.018C407.693 156.412 407.518 156.781 407.268 157.097C407.023 157.409 406.71 157.661 406.353 157.834C405.996 158.007 405.604 158.096 405.208 158.095H380.727C380.101 158.094 379.496 157.871 379.02 157.466C378.544 157.061 378.227 156.5 378.125 155.883Z" fill="#F47738"/>
<path d="M398.121 138.29H385.274C384.786 138.289 384.318 138.095 383.973 137.75C383.627 137.405 383.433 136.937 383.432 136.449V135.73C383.433 135.242 383.627 134.774 383.973 134.428C384.318 134.083 384.786 133.889 385.274 133.889H398.121C398.609 133.889 399.078 134.083 399.423 134.428C399.768 134.774 399.963 135.242 399.963 135.73V136.449C399.963 136.937 399.768 137.405 399.423 137.75C399.078 138.095 398.609 138.289 398.121 138.29Z" fill="white"/>
<path d="M22.6408 224C27.7822 214.857 34.2934 206.554 41.9482 199.38C42.4087 198.957 43.0045 198.711 43.6296 198.686C44.2546 198.661 44.8683 198.858 45.3614 199.243L64.6292 214.337C64.9422 214.58 65.1954 214.892 65.3697 215.248C65.5439 215.604 65.6345 215.996 65.6346 216.392C65.6363 216.795 65.5459 217.194 65.3704 217.557C65.1948 217.92 64.9388 218.238 64.6216 218.487C56.9022 224.62 50.7356 232.483 46.6209 241.44C46.4546 241.807 46.2067 242.132 45.8959 242.389C45.5852 242.646 45.2198 242.829 44.8277 242.923C44.4425 243.018 44.0407 243.024 43.653 242.94C43.2652 242.856 42.9018 242.684 42.5904 242.439L23.3226 227.345C22.831 226.958 22.4927 226.41 22.3679 225.797C22.243 225.185 22.3397 224.548 22.6408 224Z" fill="#CCCCCC"/>
<path d="M49.3533 221.609L39.2423 213.689C38.8583 213.387 38.6096 212.946 38.5509 212.461C38.4921 211.977 38.6281 211.489 38.9289 211.104L39.3728 210.538C39.6745 210.155 40.1162 209.906 40.601 209.847C41.0858 209.789 41.5741 209.925 41.9588 210.225L52.0698 218.146C52.4538 218.447 52.7025 218.889 52.7612 219.373C52.82 219.858 52.684 220.346 52.3832 220.73L51.9393 221.296C51.6376 221.68 51.1959 221.929 50.7111 221.987C50.2263 222.046 49.738 221.91 49.3533 221.609Z" fill="white"/>
<path d="M44.6777 227.572L34.5667 219.651C34.1826 219.35 33.934 218.908 33.8752 218.424C33.8165 217.939 33.9524 217.451 34.2533 217.067L34.6973 216.5C34.999 216.117 35.4407 215.868 35.9255 215.809C36.4103 215.751 36.8986 215.886 37.2833 216.187L47.3943 224.108C47.7783 224.409 48.027 224.851 48.0858 225.335C48.1445 225.82 48.0086 226.308 47.7077 226.692L47.2637 227.258C46.962 227.642 46.5203 227.891 46.0355 227.949C45.5507 228.008 45.0624 227.872 44.6777 227.572Z" fill="white"/>
<path d="M543.287 231.973C541.69 221.608 541.69 211.059 543.287 200.693C543.388 200.076 543.705 199.515 544.181 199.11C544.658 198.705 545.262 198.482 545.888 198.48H570.369C570.766 198.479 571.157 198.568 571.514 198.741C571.871 198.914 572.184 199.166 572.429 199.478C572.679 199.795 572.854 200.164 572.94 200.558C573.026 200.952 573.021 201.36 572.925 201.752C570.635 211.338 570.635 221.328 572.925 230.915C573.021 231.306 573.026 231.715 572.94 232.109C572.854 232.503 572.679 232.872 572.429 233.188C572.184 233.5 571.871 233.752 571.514 233.925C571.157 234.098 570.766 234.187 570.369 234.186H545.888C545.262 234.185 544.658 233.962 544.181 233.557C543.705 233.151 543.388 232.59 543.287 231.973Z" fill="#CCCCCC"/>
<path d="M563.282 214.381H550.436C549.947 214.38 549.479 214.186 549.134 213.841C548.789 213.496 548.594 213.028 548.594 212.54V211.82C548.594 211.332 548.789 210.864 549.134 210.519C549.479 210.174 549.947 209.98 550.436 209.979H563.282C563.771 209.98 564.239 210.174 564.584 210.519C564.93 210.864 565.124 211.332 565.124 211.82V212.54C565.124 213.028 564.93 213.496 564.584 213.841C564.239 214.186 563.771 214.38 563.282 214.381Z" fill="white"/>
<path d="M550.477 203.359C551.207 201.883 551.354 200.187 550.89 198.607C550.425 197.028 549.382 195.681 547.969 194.835C547.683 194.677 547.385 194.543 547.077 194.435L546.573 172.154L537.668 178.708L539.512 198.861C539.182 200.214 539.296 201.636 539.835 202.92C540.375 204.203 541.312 205.279 542.51 205.99C543.199 206.373 543.96 206.609 544.745 206.684C545.53 206.758 546.322 206.669 547.071 206.421C547.819 206.174 548.509 205.774 549.095 205.247C549.681 204.72 550.152 204.077 550.477 203.359Z" fill="#A0616A"/>
<path d="M546.725 193.466L540.342 193.85C539.661 193.868 538.999 193.628 538.487 193.179C537.975 192.73 537.65 192.105 537.578 191.428L532.278 151.574L523.713 127.264C522.99 125.239 523.069 123.013 523.935 121.045C524.337 120.096 524.928 119.24 525.673 118.528C526.418 117.816 527.301 117.264 528.268 116.906C532.168 115.489 536.439 117.733 537.787 121.907L546.498 149.779L549.184 190.483C549.238 191.221 549.007 191.951 548.539 192.525C548.247 192.885 547.862 193.161 547.426 193.321C547.201 193.403 546.964 193.452 546.725 193.466Z" fill="#F47738"/>
<path d="M509.513 315.962L501.985 315.961L498.405 286.943L509.514 286.944L509.513 315.962Z" fill="#A0616A"/>
<path d="M511.432 323.254L487.161 323.253V322.946C487.161 321.706 487.405 320.478 487.88 319.333C488.355 318.187 489.051 317.146 489.928 316.27C490.805 315.393 491.847 314.697 492.993 314.223C494.139 313.749 495.368 313.504 496.608 313.504H496.609L511.433 313.505L511.432 323.254Z" fill="#2F2E41"/>
<path d="M531.616 315.962L524.089 315.961L520.508 286.943L531.617 286.944L531.616 315.962Z" fill="#A0616A"/>
<path d="M533.536 323.254L509.265 323.253V322.946C509.265 321.706 509.509 320.478 509.984 319.333C510.458 318.187 511.154 317.146 512.031 316.27C512.909 315.393 513.95 314.697 515.096 314.223C516.242 313.749 517.471 313.504 518.712 313.504H518.712L533.536 313.505L533.536 323.254Z" fill="#2F2E41"/>
<path d="M536.668 198.691L534.87 305.276C534.864 305.613 534.789 305.946 534.649 306.253C534.509 306.56 534.307 306.835 534.055 307.061C533.804 307.286 533.509 307.457 533.188 307.564C532.868 307.67 532.529 307.709 532.192 307.679L523.384 306.878C522.806 306.826 522.266 306.571 521.858 306.158C521.451 305.745 521.203 305.202 521.158 304.624L516.001 238.139C515.989 237.983 515.917 237.837 515.801 237.732C515.685 237.627 515.533 237.57 515.377 237.573C515.22 237.576 515.07 237.639 514.959 237.749C514.847 237.858 514.781 238.007 514.775 238.163L512.198 306.17C512.174 306.804 511.905 307.405 511.447 307.845C510.989 308.285 510.379 308.532 509.744 308.532H500.297C499.672 308.532 499.07 308.293 498.614 307.865C498.159 307.436 497.884 306.851 497.846 306.227L491.233 198.077L530.528 188.259L536.668 198.691Z" fill="#1E273E"/>
<path d="M508.166 98.6084C516.494 98.6084 523.246 91.8607 523.246 83.5369C523.246 75.2131 516.494 68.4653 508.166 68.4653C499.837 68.4653 493.086 75.2131 493.086 83.5369C493.086 91.8607 499.837 98.6084 508.166 98.6084Z" fill="#A0616A"/>
<path d="M489.887 201.861C489.626 201.609 489.417 201.307 489.274 200.974C489.13 200.641 489.054 200.282 489.05 199.919L488.032 127.238C487.971 123.541 489.084 119.92 491.211 116.894C493.338 113.869 496.37 111.595 499.871 110.399C501.284 103.993 508.803 103.191 513.187 103.287C514.281 103.31 515.353 103.597 516.313 104.123C517.272 104.649 518.091 105.398 518.699 106.308L521.841 111.018L528.767 115.076C531.972 116.946 534.501 119.785 535.987 123.183C537.473 126.582 537.841 130.365 537.038 133.986L535.971 138.833C532.217 155.99 532.574 173.791 537.014 190.784L539.159 198.96C539.271 199.386 539.279 199.832 539.183 200.262C539.088 200.692 538.89 201.092 538.608 201.43C538.326 201.768 537.967 202.034 537.561 202.205C537.155 202.376 536.714 202.448 536.275 202.414L533.783 202.222C533.136 202.173 532.527 201.898 532.063 201.445C531.599 200.991 531.31 200.389 531.246 199.744L530.833 195.622C530.826 195.547 530.79 195.476 530.734 195.425C530.677 195.374 530.604 195.346 530.528 195.346C530.452 195.346 530.378 195.374 530.322 195.425C530.265 195.476 530.23 195.547 530.222 195.622L529.823 199.613C529.756 200.287 529.443 200.913 528.944 201.371C528.444 201.83 527.794 202.089 527.116 202.099L491.855 202.641C491.84 202.641 491.826 202.642 491.811 202.642C491.092 202.643 490.402 202.363 489.887 201.861Z" fill="#F47738"/>
<path d="M509.345 92.2245C509.407 94.3551 510.887 95.5877 512.704 96.7036C514.521 97.8196 516.645 98.3034 518.726 98.7702C519.006 98.9186 519.319 98.9924 519.635 98.9847C519.951 98.9769 520.26 98.8878 520.532 98.7259C520.804 98.564 521.03 98.3349 521.187 98.0605C521.344 97.7862 521.428 97.4759 521.431 97.1597L523.339 89.9045C524.015 87.5869 524.506 85.2197 524.809 82.825C525.268 78.2171 524.176 73.2602 520.958 69.9286C517.74 66.597 512.159 65.4134 508.303 67.9804C503.726 62.1387 482.808 75.0452 487.968 79.1074C488.886 79.83 490.289 78.9156 491.454 78.827C492.62 78.7383 493.925 78.9432 494.665 79.847C495.633 81.0277 495.211 82.7866 495.61 84.2596C495.775 84.7778 496.041 85.2584 496.392 85.6734C496.744 86.0885 497.174 86.4299 497.658 86.678C498.142 86.926 498.671 87.0758 499.213 87.1187C499.756 87.1616 500.301 87.0967 500.819 86.9279C501.782 86.4534 502.688 85.8711 503.52 85.1921C504.414 84.5972 505.543 84.1575 506.549 84.5328C507.875 85.0274 508.347 86.6501 508.466 88.0597C508.668 89.4656 508.962 90.8568 509.345 92.2245Z" fill="#1E273E"/>
<path opacity="0.2" d="M505.823 132.618L503.368 162.686L490.474 193.981L509.507 163.299L505.823 132.618Z" fill="black"/>
<path d="M487.459 205.636C488.163 205.071 488.734 204.359 489.133 203.55C489.532 202.74 489.748 201.854 489.766 200.952C489.785 200.05 489.606 199.155 489.241 198.33C488.876 197.505 488.334 196.77 487.654 196.176L495.868 175.843L484.692 178.098L478.605 197.062C477.684 198.269 477.238 199.773 477.351 201.287C477.465 202.802 478.13 204.222 479.222 205.279C480.313 206.336 481.754 206.956 483.273 207.022C484.791 207.088 486.28 206.595 487.459 205.636V205.636Z" fill="#A0616A"/>
<path d="M487.219 196.668L480.893 194.389C480.241 194.151 479.702 193.677 479.382 193.062C479.063 192.446 478.985 191.733 479.165 191.063L489.601 152.883L491.192 118.377C491.24 117.336 491.494 116.314 491.941 115.372C492.387 114.429 493.017 113.585 493.793 112.888C494.569 112.191 495.475 111.655 496.46 111.312C497.445 110.968 498.489 110.824 499.53 110.887C500.571 110.95 501.59 111.219 502.526 111.679C503.462 112.139 504.298 112.781 504.984 113.566C505.67 114.352 506.193 115.266 506.522 116.255C506.851 117.244 506.981 118.289 506.902 119.329L504.061 157.113L490.763 194.985C490.561 195.557 490.177 196.048 489.67 196.38C489.162 196.713 488.559 196.869 487.953 196.826C487.703 196.807 487.456 196.753 487.219 196.668Z" fill="#F47738"/>
<path d="M31.533 307.248L38.2923 310.559L54.2878 286.079L44.3124 281.192L31.533 307.248Z" fill="#FFB8B8"/>
<path d="M30.8908 304.198L44.2015 310.719L44.202 310.719C45.316 311.265 46.3115 312.025 47.1317 312.955C47.9519 313.885 48.5807 314.968 48.9822 316.141C49.3837 317.314 49.5501 318.555 49.4719 319.792C49.3937 321.03 49.0723 322.239 48.5262 323.353L48.3911 323.628L26.5975 312.951L30.8908 304.198Z" fill="#2F2E41"/>
<path d="M98.5148 318.79L106.042 318.79L109.623 289.772L98.5135 289.773L98.5148 318.79Z" fill="#FFB8B8"/>
<path d="M96.5946 313.88L111.418 313.879H111.419C112.66 313.879 113.888 314.123 115.034 314.598C116.18 315.072 117.222 315.767 118.099 316.644C118.976 317.521 119.672 318.562 120.147 319.707C120.622 320.853 120.866 322.081 120.866 323.32V323.627L96.5951 323.628L96.5946 313.88Z" fill="#2F2E41"/>
<path d="M82.346 118.528C90.6745 118.528 97.4261 111.78 97.4261 103.456C97.4261 95.1325 90.6745 88.3848 82.346 88.3848C74.0175 88.3848 67.266 95.1325 67.266 103.456C67.266 111.78 74.0175 118.528 82.346 118.528Z" fill="#FFB8B8"/>
<path d="M97.3626 309.219C96.6513 309.218 95.9677 308.943 95.4541 308.451C94.9405 307.959 94.6366 307.288 94.6055 306.578L88.7766 229.038C88.7698 228.835 88.696 228.64 88.5666 228.483C88.4373 228.326 88.2596 228.216 88.0613 228.171C87.8631 228.126 87.6554 228.147 87.4706 228.232C87.2859 228.317 87.1345 228.461 87.04 228.641L49.752 299.788C49.4135 300.426 48.8394 300.907 48.1517 301.129C47.464 301.351 46.7168 301.296 46.0688 300.976L35.6741 295.782C35.022 295.454 34.5257 294.882 34.2931 294.191C34.0606 293.5 34.1106 292.745 34.4322 292.09L56.6822 247.03L71.4194 213.276C77.1078 202.078 83.1482 196.307 89.8858 195.634C96.7981 194.944 104.18 199.694 112.457 210.157L112.524 210.242L112.523 210.351L111.295 305.07C111.297 305.758 111.041 306.422 110.577 306.93C110.113 307.439 109.476 307.755 108.79 307.816L97.633 309.206C97.5423 309.215 97.4522 309.219 97.3626 309.219Z" fill="#1E273E"/>
<path d="M66.43 218.728C67.2506 218.222 67.9502 217.542 68.4796 216.736C69.0089 215.931 69.3551 215.019 69.4938 214.065C69.6324 213.112 69.5602 212.139 69.2821 211.216C69.004 210.294 68.5269 209.443 67.8843 208.724L70.1582 148.677L59.1065 150.053L58.1746 208.471C57.0384 209.63 56.367 211.165 56.2876 212.786C56.2082 214.406 56.7264 216 57.744 217.264C58.7616 218.528 60.2079 219.376 61.8088 219.645C63.4096 219.915 65.0539 219.589 66.43 218.728Z" fill="#FFB8B8"/>
<path d="M73.421 159.293L58.5797 157.608C58.1574 157.56 57.7504 157.421 57.3865 157.202C57.0225 156.983 56.7102 156.687 56.4706 156.337C56.2311 155.986 56.0701 155.587 55.9985 155.169C55.9268 154.75 55.9464 154.321 56.0557 153.91L59.8873 139.528C60.145 137.37 61.2483 135.402 62.9555 134.056C64.6627 132.71 66.8343 132.096 68.9942 132.347C71.1541 132.599 73.126 133.696 74.4775 135.399C75.8289 137.102 76.4497 139.27 76.2036 141.43L76.7107 156.256C76.7251 156.681 76.6477 157.103 76.484 157.495C76.3202 157.887 76.0738 158.239 75.7616 158.528C75.4494 158.816 75.0788 159.033 74.6749 159.165C74.2709 159.298 73.8433 159.341 73.421 159.293L73.421 159.293Z" fill="#2F2E41"/>
<path d="M137.353 121.493C137.277 121.824 137.228 122.161 137.206 122.499L110.831 137.707L104.42 134.018L97.5856 142.96L108.3 150.592C109.165 151.209 110.208 151.528 111.27 151.502C112.333 151.476 113.358 151.107 114.193 150.449L141.39 129.005C142.618 129.459 143.954 129.529 145.222 129.205C146.49 128.881 147.63 128.179 148.489 127.193C149.348 126.206 149.887 124.981 150.032 123.681C150.178 122.381 149.925 121.068 149.305 119.916C148.686 118.763 147.73 117.827 146.565 117.231C145.4 116.634 144.081 116.407 142.784 116.578C141.486 116.749 140.272 117.311 139.302 118.189C138.331 119.067 137.652 120.219 137.353 121.493V121.493Z" fill="#FFB8B8"/>
<path d="M109.949 138.427L101.425 149.469C101.182 149.783 100.875 150.041 100.523 150.226C100.172 150.41 99.7847 150.517 99.3883 150.539C98.9918 150.561 98.5953 150.497 98.2258 150.351C97.8564 150.206 97.5226 149.983 97.2471 149.697L87.5969 139.682C85.9948 138.433 84.9538 136.6 84.7022 134.585C84.4507 132.569 85.0092 130.537 86.2551 128.933C87.5011 127.329 89.3328 126.284 91.3485 126.028C93.3642 125.771 95.3992 126.325 97.0072 127.566L109.111 134.33C109.457 134.524 109.758 134.79 109.992 135.11C110.226 135.431 110.389 135.798 110.468 136.187C110.548 136.575 110.543 136.977 110.453 137.363C110.363 137.75 110.192 138.113 109.949 138.427H109.949Z" fill="#2F2E41"/>
<path d="M116.903 214.853L100.538 135.185C99.76 131.398 97.5438 128.06 94.3551 125.873C91.1664 123.685 87.2534 122.818 83.4383 123.453L77.9805 124.362C76.0845 124.678 74.2694 125.364 72.6386 126.381C71.0079 127.398 69.5936 128.726 68.4764 130.289C66.7012 132.773 65.5055 135.623 64.9771 138.629C64.4487 141.635 64.601 144.721 65.423 147.661L74.4561 179.972L67.7524 214.589C67.6775 214.973 67.6956 215.369 67.8052 215.744C67.9147 216.12 68.1126 216.464 68.3822 216.747C68.6518 217.031 68.9854 217.246 69.3551 217.374C69.7247 217.502 70.1198 217.541 70.5072 217.485C73.8634 217.005 79.3956 216.32 85.7494 215.947L89.1917 202.677L90.5917 215.736C98.3969 215.518 106.87 215.9 113.86 217.715C114.264 217.823 114.689 217.826 115.095 217.724C115.501 217.622 115.874 217.417 116.179 217.131C116.483 216.844 116.71 216.484 116.837 216.086C116.963 215.687 116.986 215.263 116.903 214.853Z" fill="#F47738"/>
<path d="M99.7128 90.7314C98.8128 85.4993 94.6102 81.1621 89.6039 79.3874C84.5976 77.6128 78.9525 78.1899 74.0499 80.2336C68.8171 82.36 64.4854 86.2361 61.7945 91.2C61.1567 90.9147 60.5435 90.5773 59.9613 90.1912C57.0581 88.2601 54.7023 85.5103 51.5613 83.9962C46.0235 81.3269 39.3284 83.1013 33.939 86.0581C28.5495 89.0147 23.772 93.0995 18.0789 95.4198C12.386 97.74 5.12167 97.8547 0.810899 93.4736C-0.24997 96.5453 -0.336722 99.8694 0.562471 102.992C1.46166 106.115 3.30301 108.885 5.83527 110.923C8.36753 112.961 11.4674 114.169 14.7118 114.382C17.9563 114.594 21.1874 113.801 23.9642 112.111C30.2017 108.313 33.6473 100.351 40.6436 98.2551C44.5149 97.0953 48.6722 98.0294 52.5851 99.0412C54.8901 99.7038 57.2422 100.19 59.621 100.495C59.6489 104.787 61.266 108.915 64.1602 112.085C68.9885 117.165 76.5661 118.519 83.576 118.436L83.7225 118.287C81.5763 115.077 79.8825 110.625 82.2455 107.57C84.5782 104.554 89.1788 104.998 92.7512 103.664C97.7269 101.806 100.613 95.9635 99.7128 90.7314Z" fill="#1E273E"/>
<path d="M126.429 324H22.0517C21.8889 324 21.7327 323.936 21.6176 323.82C21.5024 323.705 21.4377 323.549 21.4377 323.387C21.4377 323.224 21.5024 323.068 21.6176 322.953C21.7327 322.838 21.8889 322.773 22.0517 322.773H126.429C126.592 322.773 126.748 322.838 126.863 322.953C126.978 323.068 127.043 323.224 127.043 323.387C127.043 323.549 126.978 323.705 126.863 323.82C126.748 323.936 126.592 324 126.429 324Z" fill="#CCCCCC"/>
<path d="M558.059 324H453.681C453.519 324 453.362 323.936 453.247 323.82C453.132 323.705 453.068 323.549 453.068 323.387C453.068 323.224 453.132 323.068 453.247 322.953C453.362 322.838 453.519 322.773 453.681 322.773H558.059C558.221 322.773 558.378 322.838 558.493 322.953C558.608 323.068 558.673 323.224 558.673 323.387C558.673 323.549 558.608 323.705 558.493 323.82C558.378 323.936 558.221 324 558.059 324Z" fill="#CCCCCC"/>
</g>
<defs>
<clipPath id="clip0">
<rect width="573" height="324" fill="white"/>
</clipPath>
</defs>
</svg>
